<svg xmlns="http://www.w3.org/2000/svg" xmlns:xlink="http://www.w3.org/1999/xlink" width="500" zoomAndPan="magnify" viewBox="0 0 375 374.999991" height="500" preserveAspectRatio="xMidYMid meet" version="1.0"><defs><g/><clipPath id="c99b0a8ef9"><path d="M 204.742188 139.613281 L 337.492188 139.613281 L 337.492188 199.613281 L 204.742188 199.613281 Z M 204.742188 139.613281 " clip-rule="nonzero"/></clipPath></defs><g clip-path="url(#c99b0a8ef9)"><path fill="#105b63" d="M 335.253906 158.855469 L 330.976562 158.855469 L 330.976562 152.441406 C 330.976562 151.261719 330.019531 150.304688 328.839844 150.304688 L 318.148438 150.304688 L 318.148438 141.753906 C 318.148438 140.570312 317.191406 139.613281 316.011719 139.613281 L 298.910156 139.613281 C 297.726562 139.613281 296.769531 140.570312 296.769531 141.753906 L 296.769531 160.992188 L 245.464844 160.992188 L 245.464844 141.753906 C 245.464844 140.570312 244.507812 139.613281 243.324219 139.613281 L 226.222656 139.613281 C 225.042969 139.613281 224.085938 140.570312 224.085938 141.753906 L 224.085938 150.304688 L 213.394531 150.304688 C 212.214844 150.304688 211.257812 151.261719 211.257812 152.441406 L 211.257812 159.390625 L 206.984375 159.390625 C 205.800781 159.390625 204.84375 160.347656 204.84375 161.527344 L 204.84375 178.09375 C 204.84375 179.277344 205.800781 180.234375 206.984375 180.234375 L 211.257812 180.234375 L 211.257812 186.648438 C 211.257812 187.828125 212.214844 188.785156 213.394531 188.785156 L 224.085938 188.785156 L 224.085938 197.335938 C 224.085938 198.515625 225.042969 199.472656 226.222656 199.472656 L 243.324219 199.472656 C 244.507812 199.472656 245.464844 198.515625 245.464844 197.335938 L 245.464844 178.09375 L 296.769531 178.09375 L 296.769531 197.335938 C 296.769531 198.515625 297.726562 199.472656 298.910156 199.472656 L 316.011719 199.472656 C 317.191406 199.472656 318.148438 198.515625 318.148438 197.335938 L 318.148438 188.785156 L 328.839844 188.785156 C 330.019531 188.785156 330.976562 187.828125 330.976562 186.648438 L 330.976562 179.699219 L 335.253906 179.699219 C 336.433594 179.699219 337.390625 178.742188 337.390625 177.5625 L 337.390625 160.992188 C 337.390625 159.8125 336.433594 158.855469 335.253906 158.855469 Z M 211.257812 175.957031 L 209.121094 175.957031 L 209.121094 163.664062 L 211.257812 163.664062 Z M 224.085938 184.507812 L 215.535156 184.507812 L 215.535156 154.578125 L 224.085938 154.578125 Z M 241.1875 195.199219 L 228.359375 195.199219 L 228.359375 143.890625 L 241.1875 143.890625 Z M 296.769531 173.820312 L 245.464844 173.820312 L 245.464844 165.269531 L 296.769531 165.269531 Z M 313.875 195.199219 L 301.046875 195.199219 L 301.046875 143.890625 L 313.875 143.890625 Z M 326.699219 184.507812 L 318.148438 184.507812 L 318.148438 154.578125 L 326.699219 154.578125 Z M 333.113281 175.421875 L 330.976562 175.421875 L 330.976562 163.128906 L 333.113281 163.128906 Z M 333.113281 175.421875 " fill-opacity="1" fill-rule="nonzero"/></g><g fill="#000000" fill-opacity="1"><g transform="translate(32.958419, 162.795297)"><g><path d="M 18.046875 -18.890625 L 25.5625 -18.890625 C 27.101562 -18.835938 28.046875 -18.441406 28.390625 -17.703125 C 28.671875 -17.160156 28.8125 -16.359375 28.8125 -15.296875 L 28.8125 -5.90625 C 28.8125 -4.988281 28.410156 -4.117188 27.609375 -3.296875 C 25.222656 -0.816406 21.632812 0.421875 16.84375 0.421875 C 12.59375 0.421875 8.898438 -1.175781 5.765625 -4.375 C 2.628906 -7.582031 1.0625 -11.453125 1.0625 -15.984375 C 1.0625 -20.515625 2.65625 -24.296875 5.84375 -27.328125 C 9.039062 -30.367188 12.804688 -31.890625 17.140625 -31.890625 C 20.503906 -31.890625 23.679688 -30.78125 26.671875 -28.5625 C 27.441406 -27.988281 27.828125 -27.351562 27.828125 -26.65625 C 27.828125 -25.957031 27.5 -25.148438 26.84375 -24.234375 C 25.726562 -22.722656 24.71875 -21.96875 23.8125 -21.96875 C 23.269531 -21.96875 22.398438 -22.359375 21.203125 -23.140625 C 20.003906 -23.929688 18.578125 -24.328125 16.921875 -24.328125 C 14.765625 -24.328125 12.84375 -23.5625 11.15625 -22.03125 C 9.476562 -20.507812 8.640625 -18.515625 8.640625 -16.046875 C 8.640625 -13.585938 9.492188 -11.492188 11.203125 -9.765625 C 12.910156 -8.046875 14.847656 -7.1875 17.015625 -7.1875 C 18.578125 -7.1875 19.988281 -7.441406 21.25 -7.953125 L 21.25 -12.609375 L 17.875 -12.609375 C 16.988281 -12.609375 16.359375 -12.722656 15.984375 -12.953125 C 15.617188 -13.179688 15.378906 -13.515625 15.265625 -13.953125 C 15.148438 -14.398438 15.09375 -15 15.09375 -15.75 C 15.09375 -16.507812 15.15625 -17.113281 15.28125 -17.5625 C 15.40625 -18.019531 15.640625 -18.335938 15.984375 -18.515625 C 16.503906 -18.765625 17.191406 -18.890625 18.046875 -18.890625 Z M 18.046875 -18.890625 "/></g></g></g><g fill="#000000" fill-opacity="1"><g transform="translate(64.123243, 162.795297)"><g><path d="M 23.421875 -13.953125 C 23.421875 -12.203125 22.984375 -10.90625 22.109375 -10.0625 C 21.242188 -9.226562 20.285156 -8.8125 19.234375 -8.8125 L 9.109375 -8.8125 C 9.109375 -8.007812 9.578125 -7.335938 10.515625 -6.796875 C 11.453125 -6.253906 12.394531 -5.984375 13.34375 -5.984375 C 14.988281 -5.984375 16.285156 -6.15625 17.234375 -6.5 L 17.703125 -6.671875 C 18.378906 -6.984375 18.945312 -7.140625 19.40625 -7.140625 C 20.320312 -7.140625 21.109375 -6.5 21.765625 -5.21875 C 22.128906 -4.445312 22.3125 -3.789062 22.3125 -3.25 C 22.3125 -0.707031 19.273438 0.5625 13.203125 0.5625 C 11.097656 0.5625 9.222656 0.195312 7.578125 -0.53125 C 5.941406 -1.257812 4.671875 -2.222656 3.765625 -3.421875 C 1.960938 -5.722656 1.0625 -8.300781 1.0625 -11.15625 C 1.0625 -14.75 2.222656 -17.617188 4.546875 -19.765625 C 6.867188 -21.921875 9.769531 -23 13.25 -23 C 17.207031 -23 20.113281 -21.601562 21.96875 -18.8125 C 22.9375 -17.332031 23.421875 -15.710938 23.421875 -13.953125 Z M 14.40625 -12.703125 C 15.488281 -12.703125 16.03125 -13.15625 16.03125 -14.0625 C 16.03125 -14.71875 15.78125 -15.242188 15.28125 -15.640625 C 14.78125 -16.046875 14.066406 -16.25 13.140625 -16.25 C 12.210938 -16.25 11.289062 -15.867188 10.375 -15.109375 C 9.46875 -14.359375 9.015625 -13.554688 9.015625 -12.703125 Z M 14.40625 -12.703125 "/></g></g></g><g fill="#000000" fill-opacity="1"><g transform="translate(89.260326, 162.795297)"><g><path d="M 16.328125 -20.140625 C 16.503906 -21.734375 17.628906 -22.53125 19.703125 -22.53125 C 20.816406 -22.53125 21.644531 -22.441406 22.1875 -22.265625 C 22.726562 -22.097656 23.101562 -21.800781 23.3125 -21.375 C 23.53125 -20.945312 23.660156 -20.566406 23.703125 -20.234375 C 23.742188 -19.910156 23.765625 -19.421875 23.765625 -18.765625 L 23.765625 -3.8125 C 23.765625 -3.15625 23.742188 -2.660156 23.703125 -2.328125 C 23.660156 -2.003906 23.539062 -1.628906 23.34375 -1.203125 C 22.945312 -0.453125 21.96875 -0.078125 20.40625 -0.078125 C 18.851562 -0.078125 17.8125 -0.269531 17.28125 -0.65625 C 16.757812 -1.039062 16.457031 -1.601562 16.375 -2.34375 C 15.320312 -0.832031 13.5625 -0.078125 11.09375 -0.078125 C 8.625 -0.078125 6.332031 -1.203125 4.21875 -3.453125 C 2.113281 -5.710938 1.0625 -8.332031 1.0625 -11.3125 C 1.0625 -14.289062 2.125 -16.894531 4.25 -19.125 C 6.375 -21.363281 8.707031 -22.484375 11.25 -22.484375 C 12.21875 -22.484375 13.097656 -22.3125 13.890625 -21.96875 C 14.691406 -21.625 15.25 -21.300781 15.5625 -21 C 15.875 -20.707031 16.128906 -20.421875 16.328125 -20.140625 Z M 8.546875 -11.234375 C 8.546875 -10.296875 8.914062 -9.445312 9.65625 -8.6875 C 10.394531 -7.9375 11.289062 -7.5625 12.34375 -7.5625 C 13.40625 -7.5625 14.285156 -7.945312 14.984375 -8.71875 C 15.679688 -9.488281 16.03125 -10.335938 16.03125 -11.265625 C 16.03125 -12.191406 15.691406 -13.050781 15.015625 -13.84375 C 14.347656 -14.644531 13.453125 -15.046875 12.328125 -15.046875 C 11.203125 -15.046875 10.289062 -14.644531 9.59375 -13.84375 C 8.894531 -13.050781 8.546875 -12.179688 8.546875 -11.234375 Z M 8.546875 -11.234375 "/></g></g></g><g fill="#000000" fill-opacity="1"><g transform="translate(115.380663, 162.795297)"><g><path d="M 17.015625 -22.265625 C 17.554688 -22.097656 18.003906 -21.804688 18.359375 -21.390625 C 18.710938 -20.984375 18.890625 -20.320312 18.890625 -19.40625 C 18.890625 -18.5 18.617188 -17.503906 18.078125 -16.421875 C 17.535156 -15.335938 16.753906 -14.796875 15.734375 -14.796875 C 15.222656 -14.796875 14.726562 -14.90625 14.25 -15.125 C 13.78125 -15.351562 13.160156 -15.46875 12.390625 -15.46875 C 11.628906 -15.46875 10.910156 -15.195312 10.234375 -14.65625 C 9.566406 -14.113281 9.234375 -13.460938 9.234375 -12.703125 L 9.234375 -3.71875 C 9.234375 -3.0625 9.210938 -2.566406 9.171875 -2.234375 C 9.128906 -1.910156 8.992188 -1.535156 8.765625 -1.109375 C 8.335938 -0.367188 7.222656 0 5.421875 0 C 4.054688 0 3.078125 -0.242188 2.484375 -0.734375 C 2.023438 -1.128906 1.765625 -1.738281 1.703125 -2.5625 C 1.703125 -2.851562 1.703125 -3.269531 1.703125 -3.8125 L 1.703125 -18.8125 C 1.703125 -19.46875 1.722656 -19.957031 1.765625 -20.28125 C 1.816406 -20.613281 1.941406 -20.976562 2.140625 -21.375 C 2.535156 -22.144531 3.644531 -22.53125 5.46875 -22.53125 C 7.175781 -22.53125 8.242188 -22.203125 8.671875 -21.546875 C 8.992188 -21.085938 9.15625 -20.617188 9.15625 -20.140625 C 9.289062 -20.335938 9.492188 -20.578125 9.765625 -20.859375 C 10.035156 -21.148438 10.613281 -21.535156 11.5 -22.015625 C 12.382812 -22.503906 13.160156 -22.75 13.828125 -22.75 C 14.492188 -22.75 15.054688 -22.710938 15.515625 -22.640625 C 15.972656 -22.566406 16.472656 -22.441406 17.015625 -22.265625 Z M 17.015625 -22.265625 "/></g></g></g><g fill="#000000" fill-opacity="1"><g transform="translate(135.558758, 162.795297)"><g><path d="M 22.1875 -30.171875 C 22.46875 -30.628906 22.878906 -30.941406 23.421875 -31.109375 C 23.960938 -31.285156 24.640625 -31.375 25.453125 -31.375 C 26.265625 -31.375 26.910156 -31.300781 27.390625 -31.15625 C 27.878906 -31.019531 28.253906 -30.851562 28.515625 -30.65625 C 28.773438 -30.457031 28.957031 -30.15625 29.0625 -29.75 C 29.238281 -29.269531 29.328125 -28.53125 29.328125 -27.53125 L 29.328125 -14.625 C 29.328125 -10.863281 28.160156 -7.441406 25.828125 -4.359375 C 24.679688 -2.910156 23.207031 -1.734375 21.40625 -0.828125 C 19.613281 0.0664062 17.628906 0.515625 15.453125 0.515625 C 13.273438 0.515625 11.296875 0.0625 9.515625 -0.84375 C 7.734375 -1.757812 6.285156 -2.960938 5.171875 -4.453125 C 2.859375 -7.472656 1.703125 -10.890625 1.703125 -14.703125 L 1.703125 -27.578125 C 1.703125 -28.253906 1.722656 -28.753906 1.765625 -29.078125 C 1.816406 -29.410156 1.953125 -29.789062 2.171875 -30.21875 C 2.398438 -30.644531 2.785156 -30.941406 3.328125 -31.109375 C 3.867188 -31.285156 4.59375 -31.375 5.5 -31.375 C 6.414062 -31.375 7.144531 -31.285156 7.6875 -31.109375 C 8.226562 -30.941406 8.601562 -30.644531 8.8125 -30.21875 C 9.144531 -29.5625 9.3125 -28.664062 9.3125 -27.53125 L 9.3125 -14.703125 C 9.3125 -12.960938 9.742188 -11.3125 10.609375 -9.75 C 11.035156 -8.945312 11.675781 -8.300781 12.53125 -7.8125 C 13.382812 -7.332031 14.394531 -7.09375 15.5625 -7.09375 C 17.644531 -7.09375 19.195312 -7.863281 20.21875 -9.40625 C 21.25 -10.945312 21.765625 -12.726562 21.765625 -14.75 L 21.765625 -27.828125 C 21.765625 -28.941406 21.90625 -29.722656 22.1875 -30.171875 Z M 22.1875 -30.171875 "/></g></g></g><g fill="#000000" fill-opacity="1"><g transform="translate(167.236585, 162.795297)"><g><path d="M 1.703125 6.109375 L 1.703125 -18.859375 C 1.703125 -19.515625 1.722656 -20 1.765625 -20.3125 C 1.816406 -20.625 1.941406 -20.976562 2.140625 -21.375 C 2.535156 -22.144531 3.488281 -22.53125 5 -22.53125 C 6.507812 -22.53125 7.523438 -22.335938 8.046875 -21.953125 C 8.578125 -21.566406 8.890625 -21.003906 8.984375 -20.265625 C 10.066406 -21.742188 11.765625 -22.484375 14.078125 -22.484375 C 16.398438 -22.484375 18.601562 -21.382812 20.6875 -19.1875 C 22.769531 -17 23.8125 -14.453125 23.8125 -11.546875 C 23.8125 -8.640625 22.773438 -6.085938 20.703125 -3.890625 C 18.640625 -1.691406 16.441406 -0.59375 14.109375 -0.59375 C 11.773438 -0.59375 10.078125 -1.25 9.015625 -2.5625 L 9.015625 6.078125 C 9.015625 6.722656 8.992188 7.203125 8.953125 7.515625 C 8.910156 7.835938 8.78125 8.203125 8.5625 8.609375 C 8.351562 9.023438 7.992188 9.316406 7.484375 9.484375 C 6.972656 9.660156 6.273438 9.75 5.390625 9.75 C 4.503906 9.75 3.796875 9.660156 3.265625 9.484375 C 2.742188 9.316406 2.375 9.03125 2.15625 8.625 C 1.945312 8.226562 1.816406 7.875 1.765625 7.5625 C 1.722656 7.25 1.703125 6.765625 1.703125 6.109375 Z M 10.171875 -14.015625 C 9.515625 -13.253906 9.1875 -12.414062 9.1875 -11.5 C 9.1875 -10.582031 9.519531 -9.742188 10.1875 -8.984375 C 10.863281 -8.234375 11.722656 -7.859375 12.765625 -7.859375 C 13.804688 -7.859375 14.6875 -8.226562 15.40625 -8.96875 C 16.132812 -9.71875 16.5 -10.5625 16.5 -11.5 C 16.5 -12.4375 16.15625 -13.28125 15.46875 -14.03125 C 14.789062 -14.789062 13.898438 -15.171875 12.796875 -15.171875 C 11.703125 -15.171875 10.828125 -14.785156 10.171875 -14.015625 Z M 10.171875 -14.015625 "/></g></g></g><g fill="#000000" fill-opacity="1"><g transform="translate(32.958419, 207.045294)"><g><path d="M 25.6875 -5.296875 C 26.113281 -4.273438 26.328125 -3.535156 26.328125 -3.078125 C 26.328125 -1.992188 25.445312 -1.082031 23.6875 -0.34375 C 22.769531 0.0507812 22.03125 0.25 21.46875 0.25 C 20.914062 0.25 20.460938 0.113281 20.109375 -0.15625 C 19.753906 -0.425781 19.492188 -0.703125 19.328125 -0.984375 C 19.035156 -1.523438 17.921875 -4.101562 15.984375 -8.71875 L 14.65625 -8.640625 L 9.28125 -8.640625 L 9.28125 -3.8125 C 9.28125 -3.15625 9.257812 -2.660156 9.21875 -2.328125 C 9.175781 -2.003906 9.039062 -1.628906 8.8125 -1.203125 C 8.40625 -0.429688 7.289062 -0.046875 5.46875 -0.046875 C 3.476562 -0.046875 2.3125 -0.570312 1.96875 -1.625 C 1.789062 -2.101562 1.703125 -2.84375 1.703125 -3.84375 L 1.703125 -27.578125 C 1.703125 -28.234375 1.722656 -28.722656 1.765625 -29.046875 C 1.816406 -29.378906 1.957031 -29.757812 2.1875 -30.1875 C 2.582031 -30.945312 3.691406 -31.328125 5.515625 -31.328125 L 14.75 -31.328125 C 17.257812 -31.328125 19.695312 -30.414062 22.0625 -28.59375 C 23.195312 -27.71875 24.132812 -26.523438 24.875 -25.015625 C 25.613281 -23.503906 25.984375 -21.820312 25.984375 -19.96875 C 25.984375 -16.75 24.914062 -14.097656 22.78125 -12.015625 C 23.40625 -10.503906 24.375 -8.265625 25.6875 -5.296875 Z M 9.28125 -16.203125 L 14.75 -16.203125 C 15.570312 -16.203125 16.394531 -16.515625 17.21875 -17.140625 C 18.050781 -17.765625 18.46875 -18.703125 18.46875 -19.953125 C 18.46875 -21.210938 18.050781 -22.160156 17.21875 -22.796875 C 16.394531 -23.441406 15.539062 -23.765625 14.65625 -23.765625 L 9.28125 -23.765625 Z M 9.28125 -16.203125 "/></g></g></g><g fill="#000000" fill-opacity="1"><g transform="translate(60.575002, 207.045294)"><g><path d="M 23.421875 -13.953125 C 23.421875 -12.203125 22.984375 -10.90625 22.109375 -10.0625 C 21.242188 -9.226562 20.285156 -8.8125 19.234375 -8.8125 L 9.109375 -8.8125 C 9.109375 -8.007812 9.578125 -7.335938 10.515625 -6.796875 C 11.453125 -6.253906 12.394531 -5.984375 13.34375 -5.984375 C 14.988281 -5.984375 16.285156 -6.15625 17.234375 -6.5 L 17.703125 -6.671875 C 18.378906 -6.984375 18.945312 -7.140625 19.40625 -7.140625 C 20.320312 -7.140625 21.109375 -6.5 21.765625 -5.21875 C 22.128906 -4.445312 22.3125 -3.789062 22.3125 -3.25 C 22.3125 -0.707031 19.273438 0.5625 13.203125 0.5625 C 11.097656 0.5625 9.222656 0.195312 7.578125 -0.53125 C 5.941406 -1.257812 4.671875 -2.222656 3.765625 -3.421875 C 1.960938 -5.722656 1.0625 -8.300781 1.0625 -11.15625 C 1.0625 -14.75 2.222656 -17.617188 4.546875 -19.765625 C 6.867188 -21.921875 9.769531 -23 13.25 -23 C 17.207031 -23 20.113281 -21.601562 21.96875 -18.8125 C 22.9375 -17.332031 23.421875 -15.710938 23.421875 -13.953125 Z M 14.40625 -12.703125 C 15.488281 -12.703125 16.03125 -13.15625 16.03125 -14.0625 C 16.03125 -14.71875 15.78125 -15.242188 15.28125 -15.640625 C 14.78125 -16.046875 14.066406 -16.25 13.140625 -16.25 C 12.210938 -16.25 11.289062 -15.867188 10.375 -15.109375 C 9.46875 -14.359375 9.015625 -13.554688 9.015625 -12.703125 Z M 14.40625 -12.703125 "/></g></g></g><g fill="#000000" fill-opacity="1"><g transform="translate(85.712085, 207.045294)"><g><path d="M 14.234375 -22.53125 C 17.085938 -22.53125 19.460938 -21.4375 21.359375 -19.25 C 23.253906 -17.070312 24.203125 -14.414062 24.203125 -11.28125 L 24.203125 -3.765625 C 24.203125 -3.109375 24.175781 -2.613281 24.125 -2.28125 C 24.082031 -1.957031 23.960938 -1.597656 23.765625 -1.203125 C 23.367188 -0.429688 22.257812 -0.046875 20.4375 -0.046875 C 18.414062 -0.046875 17.242188 -0.570312 16.921875 -1.625 C 16.753906 -2.101562 16.671875 -2.832031 16.671875 -3.8125 L 16.671875 -11.328125 C 16.671875 -12.492188 16.332031 -13.40625 15.65625 -14.0625 C 14.988281 -14.71875 14.09375 -15.046875 12.96875 -15.046875 C 11.84375 -15.046875 10.929688 -14.703125 10.234375 -14.015625 C 9.535156 -13.335938 9.1875 -12.441406 9.1875 -11.328125 L 9.1875 -3.765625 C 9.1875 -3.109375 9.164062 -2.613281 9.125 -2.28125 C 9.082031 -1.957031 8.945312 -1.597656 8.71875 -1.203125 C 8.351562 -0.429688 7.253906 -0.046875 5.421875 -0.046875 C 3.628906 -0.046875 2.535156 -0.429688 2.140625 -1.203125 C 1.941406 -1.628906 1.816406 -2.003906 1.765625 -2.328125 C 1.722656 -2.660156 1.703125 -3.15625 1.703125 -3.8125 L 1.703125 -18.9375 C 1.703125 -19.5625 1.722656 -20.035156 1.765625 -20.359375 C 1.816406 -20.691406 1.957031 -21.054688 2.1875 -21.453125 C 2.582031 -22.171875 3.675781 -22.53125 5.46875 -22.53125 C 7.207031 -22.53125 8.273438 -22.203125 8.671875 -21.546875 C 8.960938 -21.054688 9.109375 -20.472656 9.109375 -19.796875 C 9.222656 -19.992188 9.476562 -20.273438 9.875 -20.640625 C 10.269531 -21.015625 10.65625 -21.316406 11.03125 -21.546875 C 12 -22.203125 13.066406 -22.53125 14.234375 -22.53125 Z M 14.234375 -22.53125 "/></g></g></g><g fill="#000000" fill-opacity="1"><g transform="translate(112.259916, 207.045294)"><g><path d="M 14.796875 -14.96875 L 12.015625 -15.140625 L 12.015625 -9.234375 C 12.015625 -8.460938 12.132812 -7.90625 12.375 -7.5625 C 12.613281 -7.21875 13.066406 -7.046875 13.734375 -7.046875 C 14.410156 -7.046875 14.925781 -7.023438 15.28125 -6.984375 C 15.632812 -6.941406 16.015625 -6.804688 16.421875 -6.578125 C 17.078125 -6.210938 17.40625 -5.257812 17.40625 -3.71875 C 17.40625 -1.925781 17.003906 -0.828125 16.203125 -0.421875 C 15.773438 -0.222656 15.394531 -0.101562 15.0625 -0.0625 C 14.738281 -0.0195312 14.265625 0 13.640625 0 C 10.671875 0 8.414062 -0.664062 6.875 -2 C 5.34375 -3.34375 4.578125 -5.613281 4.578125 -8.8125 L 4.578125 -15.140625 C 4.035156 -15.046875 3.445312 -15 2.8125 -15 C 2.1875 -15 1.664062 -15.238281 1.25 -15.71875 C 0.84375 -16.207031 0.640625 -17.035156 0.640625 -18.203125 C 0.640625 -19.378906 0.707031 -20.226562 0.84375 -20.75 C 0.988281 -21.28125 1.191406 -21.660156 1.453125 -21.890625 C 1.910156 -22.253906 2.476562 -22.4375 3.15625 -22.4375 L 4.578125 -22.265625 L 4.578125 -26.671875 C 4.578125 -27.328125 4.597656 -27.8125 4.640625 -28.125 C 4.679688 -28.4375 4.816406 -28.78125 5.046875 -29.15625 C 5.410156 -29.863281 6.507812 -30.21875 8.34375 -30.21875 C 10.28125 -30.21875 11.429688 -29.691406 11.796875 -28.640625 C 11.941406 -28.179688 12.015625 -27.457031 12.015625 -26.46875 L 12.015625 -22.265625 C 13.265625 -22.378906 14.207031 -22.4375 14.84375 -22.4375 C 15.488281 -22.4375 15.972656 -22.414062 16.296875 -22.375 C 16.628906 -22.332031 17.007812 -22.195312 17.4375 -21.96875 C 18.175781 -21.601562 18.546875 -20.507812 18.546875 -18.6875 C 18.546875 -16.882812 18.164062 -15.785156 17.40625 -15.390625 C 16.976562 -15.191406 16.597656 -15.070312 16.265625 -15.03125 C 15.941406 -14.988281 15.453125 -14.96875 14.796875 -14.96875 Z M 14.796875 -14.96875 "/></g></g></g><g fill="#000000" fill-opacity="1"><g transform="translate(132.096016, 207.045294)"><g><path d="M 16.328125 -20.140625 C 16.503906 -21.734375 17.628906 -22.53125 19.703125 -22.53125 C 20.816406 -22.53125 21.644531 -22.441406 22.1875 -22.265625 C 22.726562 -22.097656 23.101562 -21.800781 23.3125 -21.375 C 23.53125 -20.945312 23.660156 -20.566406 23.703125 -20.234375 C 23.742188 -19.910156 23.765625 -19.421875 23.765625 -18.765625 L 23.765625 -3.8125 C 23.765625 -3.15625 23.742188 -2.660156 23.703125 -2.328125 C 23.660156 -2.003906 23.539062 -1.628906 23.34375 -1.203125 C 22.945312 -0.453125 21.96875 -0.078125 20.40625 -0.078125 C 18.851562 -0.078125 17.8125 -0.269531 17.28125 -0.65625 C 16.757812 -1.039062 16.457031 -1.601562 16.375 -2.34375 C 15.320312 -0.832031 13.5625 -0.078125 11.09375 -0.078125 C 8.625 -0.078125 6.332031 -1.203125 4.21875 -3.453125 C 2.113281 -5.710938 1.0625 -8.332031 1.0625 -11.3125 C 1.0625 -14.289062 2.125 -16.894531 4.25 -19.125 C 6.375 -21.363281 8.707031 -22.484375 11.25 -22.484375 C 12.21875 -22.484375 13.097656 -22.3125 13.890625 -21.96875 C 14.691406 -21.625 15.25 -21.300781 15.5625 -21 C 15.875 -20.707031 16.128906 -20.421875 16.328125 -20.140625 Z M 8.546875 -11.234375 C 8.546875 -10.296875 8.914062 -9.445312 9.65625 -8.6875 C 10.394531 -7.9375 11.289062 -7.5625 12.34375 -7.5625 C 13.40625 -7.5625 14.285156 -7.945312 14.984375 -8.71875 C 15.679688 -9.488281 16.03125 -10.335938 16.03125 -11.265625 C 16.03125 -12.191406 15.691406 -13.050781 15.015625 -13.84375 C 14.347656 -14.644531 13.453125 -15.046875 12.328125 -15.046875 C 11.203125 -15.046875 10.289062 -14.644531 9.59375 -13.84375 C 8.894531 -13.050781 8.546875 -12.179688 8.546875 -11.234375 Z M 8.546875 -11.234375 "/></g></g></g><g fill="#000000" fill-opacity="1"><g transform="translate(158.216353, 207.045294)"><g><path d="M 1.703125 -29.375 C 1.703125 -30.03125 1.722656 -30.519531 1.765625 -30.84375 C 1.816406 -31.164062 1.941406 -31.546875 2.140625 -31.984375 C 2.535156 -32.742188 3.644531 -33.125 5.46875 -33.125 C 7.207031 -33.125 8.289062 -32.742188 8.71875 -31.984375 C 8.945312 -31.546875 9.082031 -31.15625 9.125 -30.8125 C 9.164062 -30.476562 9.1875 -29.984375 9.1875 -29.328125 L 9.1875 -9.53125 C 9.1875 -8.507812 9.269531 -7.863281 9.4375 -7.59375 C 9.613281 -7.320312 9.992188 -7.1875 10.578125 -7.1875 C 11.160156 -7.1875 11.550781 -7.160156 11.75 -7.109375 C 11.957031 -7.066406 12.203125 -6.945312 12.484375 -6.75 C 13.054688 -6.382812 13.34375 -5.375 13.34375 -3.71875 C 13.34375 -1.925781 13.054688 -0.828125 12.484375 -0.421875 C 11.742188 0.0859375 9.976562 0.171875 7.1875 -0.171875 C 4.988281 -0.453125 3.5625 -1.175781 2.90625 -2.34375 C 2.101562 -3.75 1.703125 -5.972656 1.703125 -9.015625 Z M 1.703125 -29.375 "/></g></g></g><g fill="#000000" fill-opacity="1"><g transform="translate(172.836957, 207.045294)"><g><path d="M 1.875 -2.015625 C 1.332031 -2.347656 1.0625 -2.882812 1.0625 -3.625 C 1.0625 -4.375 1.601562 -5.503906 2.6875 -7.015625 C 3 -7.492188 3.503906 -7.734375 4.203125 -7.734375 C 4.910156 -7.734375 5.859375 -7.382812 7.046875 -6.6875 C 8.242188 -5.988281 9.328125 -5.640625 10.296875 -5.640625 C 12.035156 -5.640625 12.90625 -5.984375 12.90625 -6.671875 C 12.90625 -7.210938 11.953125 -7.609375 10.046875 -7.859375 C 8.253906 -8.117188 6.472656 -8.789062 4.703125 -9.875 C 3.878906 -10.382812 3.195312 -11.1875 2.65625 -12.28125 C 2.113281 -13.382812 1.84375 -14.691406 1.84375 -16.203125 C 1.84375 -20.703125 4.929688 -22.953125 11.109375 -22.953125 C 13.140625 -22.953125 15.222656 -22.46875 17.359375 -21.5 C 18.359375 -21.039062 18.859375 -20.46875 18.859375 -19.78125 C 18.859375 -19.101562 18.539062 -18.265625 17.90625 -17.265625 C 17.28125 -16.273438 16.640625 -15.78125 15.984375 -15.78125 C 15.640625 -15.78125 15.003906 -15.992188 14.078125 -16.421875 C 13.160156 -16.847656 12.160156 -17.0625 11.078125 -17.0625 C 9.390625 -17.0625 8.546875 -16.742188 8.546875 -16.109375 C 8.546875 -15.253906 9.515625 -14.703125 11.453125 -14.453125 C 13.335938 -14.253906 15.160156 -13.710938 16.921875 -12.828125 C 17.753906 -12.421875 18.445312 -11.726562 19 -10.75 C 19.5625 -9.769531 19.84375 -8.535156 19.84375 -7.046875 C 19.84375 -5.566406 19.5625 -4.304688 19 -3.265625 C 18.445312 -2.222656 17.671875 -1.445312 16.671875 -0.9375 C 14.847656 -0.0507812 12.5625 0.390625 9.8125 0.390625 C 7.0625 0.390625 4.414062 -0.410156 1.875 -2.015625 Z M 1.875 -2.015625 "/></g></g></g><g fill="#000000" fill-opacity="1"><g transform="translate(95.18983, 225.094159)"><g><path d="M 1.777344 -1.179688 L 1.777344 -4.625 L 2.164062 -4.625 C 3.15625 -4.625 3.824219 -3.875 3.824219 -2.90625 C 3.824219 -1.941406 3.148438 -1.179688 2.164062 -1.179688 Z M 0.511719 -5.816406 L 0.511719 0 L 2.242188 0 C 3.890625 0 5.132812 -1.265625 5.132812 -2.90625 C 5.132812 -4.550781 3.882812 -5.816406 2.242188 -5.816406 Z M 0.511719 -5.816406 "/></g></g></g><g fill="#000000" fill-opacity="1"><g transform="translate(102.330466, 225.094159)"><g><path d="M 4.550781 -1.164062 L 2.257812 -1.164062 L 4.6875 -5.816406 L 0.34375 -5.816406 L 0.34375 -4.652344 L 2.601562 -4.652344 L 0.171875 0 L 4.550781 0 Z M 4.550781 -1.164062 "/></g></g></g><g fill="#000000" fill-opacity="1"><g transform="translate(108.898143, 225.094159)"><g><path d="M 1.796875 0 L 1.796875 -5.816406 L 0.511719 -5.816406 L 0.511719 0 Z M 1.796875 0 "/></g></g></g><g fill="#000000" fill-opacity="1"><g transform="translate(112.917421, 225.094159)"><g><path d="M 3.882812 -1.164062 L 1.796875 -1.164062 L 1.796875 -2.335938 L 3.796875 -2.335938 L 3.796875 -3.496094 L 1.796875 -3.496094 L 1.796875 -4.652344 L 3.882812 -4.652344 L 3.882812 -5.816406 L 0.511719 -5.816406 L 0.511719 0 L 3.882812 0 Z M 3.882812 -1.164062 "/></g></g></g><g fill="#000000" fill-opacity="1"><g transform="translate(119.023306, 225.094159)"><g><path d="M 0.511719 0 L 3.882812 0 L 3.882812 -1.164062 L 1.796875 -1.164062 L 1.796875 -5.816406 L 0.511719 -5.816406 Z M 0.511719 0 "/></g></g></g><g fill="#000000" fill-opacity="1"><g transform="translate(124.915399, 225.094159)"><g/></g></g><g fill="#000000" fill-opacity="1"><g transform="translate(128.763645, 225.094159)"><g><path d="M 2.769531 -0.90625 C 2.136719 -0.90625 1.589844 -1.222656 1.554688 -1.914062 L 0.257812 -1.914062 C 0.265625 -0.496094 1.4375 0.136719 2.71875 0.136719 C 3.90625 0.136719 5.132812 -0.367188 5.132812 -1.734375 C 5.132812 -3.949219 1.769531 -3.207031 1.769531 -4.242188 C 1.769531 -4.679688 2.273438 -4.847656 2.632812 -4.847656 C 3.273438 -4.847656 3.625 -4.652344 3.695312 -4.046875 L 4.933594 -4.046875 C 4.890625 -5.371094 3.8125 -5.902344 2.617188 -5.902344 C 1.554688 -5.902344 0.445312 -5.335938 0.445312 -4.140625 C 0.445312 -1.992188 3.804688 -2.71875 3.804688 -1.589844 C 3.804688 -1.070312 3.171875 -0.90625 2.769531 -0.90625 Z M 2.769531 -0.90625 "/></g></g></g><g fill="#000000" fill-opacity="1"><g transform="translate(135.861523, 225.094159)"><g><path d="M 1.796875 0 L 1.796875 -5.816406 L 0.511719 -5.816406 L 0.511719 0 Z M 1.796875 0 "/></g></g></g><g fill="#000000" fill-opacity="1"><g transform="translate(139.8808, 225.094159)"><g><path d="M 4.28125 0 L 0.765625 0 L 0.765625 -6.109375 L 4.28125 -6.109375 L 4.28125 -5.046875 L 2.0625 -5.046875 L 2.0625 -3.703125 L 4.125 -3.703125 L 4.125 -2.640625 L 2.0625 -2.640625 L 2.0625 -1.0625 L 4.28125 -1.0625 Z M 3.46875 0.953125 C 3.46875 1.066406 3.5 1.148438 3.5625 1.203125 C 3.625 1.265625 3.707031 1.296875 3.8125 1.296875 C 3.894531 1.296875 3.976562 1.285156 4.0625 1.265625 C 4.15625 1.242188 4.226562 1.226562 4.28125 1.21875 L 4.28125 1.953125 C 4.1875 1.984375 4.085938 2.003906 3.984375 2.015625 C 3.890625 2.035156 3.773438 2.046875 3.640625 2.046875 C 3.316406 2.046875 3.0625 1.957031 2.875 1.78125 C 2.6875 1.601562 2.59375 1.375 2.59375 1.09375 C 2.59375 0.84375 2.679688 0.609375 2.859375 0.390625 C 3.046875 0.171875 3.269531 -0.00390625 3.53125 -0.140625 L 4.09375 0 C 3.894531 0.1875 3.738281 0.351562 3.625 0.5 C 3.519531 0.65625 3.46875 0.804688 3.46875 0.953125 Z M 3.46875 0.953125 "/></g></g></g><g fill="#000000" fill-opacity="1"><g transform="translate(146.380064, 225.094159)"><g/></g></g><g fill="#000000" fill-opacity="1"><g transform="translate(150.228308, 225.094159)"><g><path d="M 1.796875 -2.078125 L 1.804688 -2.078125 L 3.191406 0 L 4.816406 0 L 3.148438 -2.136719 C 3.882812 -2.316406 4.472656 -2.96875 4.472656 -3.949219 C 4.472656 -5.054688 3.632812 -5.816406 2.695312 -5.816406 L 0.511719 -5.816406 L 0.511719 0 L 1.796875 0 Z M 2.480469 -4.804688 C 2.855469 -4.804688 3.25 -4.480469 3.25 -3.949219 C 3.25 -3.394531 2.855469 -3.085938 2.480469 -3.085938 L 1.796875 -3.085938 L 1.796875 -4.804688 Z M 2.480469 -4.804688 "/></g></g></g><g fill="#000000" fill-opacity="1"><g transform="translate(156.650604, 225.094159)"><g><path d="M 3.675781 -2.222656 L 2.207031 -2.222656 L 2.941406 -4.292969 Z M 5.847656 0 L 3.488281 -5.816406 L 2.402344 -5.816406 L 0.0429688 0 L 1.417969 0 L 1.839844 -1.171875 L 4.054688 -1.171875 L 4.472656 0 Z M 5.847656 0 "/></g></g></g><g fill="#000000" fill-opacity="1"><g transform="translate(164.253035, 225.094159)"><g><path d="M 1.777344 -1.179688 L 1.777344 -4.625 L 2.164062 -4.625 C 3.15625 -4.625 3.824219 -3.875 3.824219 -2.90625 C 3.824219 -1.941406 3.148438 -1.179688 2.164062 -1.179688 Z M 0.511719 -5.816406 L 0.511719 0 L 2.242188 0 C 3.890625 0 5.132812 -1.265625 5.132812 -2.90625 C 5.132812 -4.550781 3.882812 -5.816406 2.242188 -5.816406 Z M 0.511719 -5.816406 "/></g></g></g><g fill="#000000" fill-opacity="1"><g transform="translate(171.39367, 225.094159)"><g><path d="M 5.003906 -2.917969 C 5.003906 -2.019531 4.191406 -1.195312 3.292969 -1.195312 C 2.394531 -1.195312 1.582031 -2.019531 1.582031 -2.917969 C 1.582031 -3.8125 2.394531 -4.625 3.292969 -4.625 C 4.191406 -4.625 5.003906 -3.8125 5.003906 -2.917969 Z M 6.285156 -2.90625 C 6.285156 -4.515625 4.898438 -5.902344 3.292969 -5.902344 C 1.683594 -5.902344 0.300781 -4.515625 0.300781 -2.90625 C 0.300781 -1.300781 1.683594 0.0859375 3.292969 0.0859375 C 4.898438 0.0859375 6.285156 -1.300781 6.285156 -2.90625 Z M 6.285156 -2.90625 "/></g></g></g><g fill="#000000" fill-opacity="1"><g transform="translate(179.688777, 225.094159)"><g><path d="M 4.375 -1.6875 C 4.375 -1.144531 4.175781 -0.710938 3.78125 -0.390625 C 3.394531 -0.078125 2.84375 0.078125 2.125 0.078125 C 1.476562 0.078125 0.898438 -0.0390625 0.390625 -0.28125 L 0.390625 -1.484375 C 0.679688 -1.359375 0.984375 -1.242188 1.296875 -1.140625 C 1.609375 -1.035156 1.914062 -0.984375 2.21875 -0.984375 C 2.539062 -0.984375 2.769531 -1.039062 2.90625 -1.15625 C 3.039062 -1.28125 3.109375 -1.4375 3.109375 -1.625 C 3.109375 -1.78125 3.050781 -1.910156 2.9375 -2.015625 C 2.832031 -2.128906 2.691406 -2.234375 2.515625 -2.328125 C 2.335938 -2.421875 2.140625 -2.519531 1.921875 -2.625 C 1.773438 -2.695312 1.617188 -2.78125 1.453125 -2.875 C 1.285156 -2.96875 1.125 -3.082031 0.96875 -3.21875 C 0.820312 -3.363281 0.703125 -3.535156 0.609375 -3.734375 C 0.515625 -3.929688 0.46875 -4.171875 0.46875 -4.453125 C 0.46875 -4.992188 0.648438 -5.414062 1.015625 -5.71875 C 1.390625 -6.03125 1.894531 -6.1875 2.53125 -6.1875 C 2.851562 -6.1875 3.15625 -6.148438 3.4375 -6.078125 C 3.71875 -6.003906 4.019531 -5.898438 4.34375 -5.765625 L 3.921875 -4.75 C 3.640625 -4.863281 3.390625 -4.953125 3.171875 -5.015625 C 2.953125 -5.078125 2.722656 -5.109375 2.484375 -5.109375 C 2.242188 -5.109375 2.054688 -5.050781 1.921875 -4.9375 C 1.785156 -4.820312 1.71875 -4.675781 1.71875 -4.5 C 1.71875 -4.28125 1.816406 -4.109375 2.015625 -3.984375 C 2.210938 -3.859375 2.5 -3.703125 2.875 -3.515625 C 3.1875 -3.367188 3.453125 -3.21875 3.671875 -3.0625 C 3.898438 -2.90625 4.070312 -2.71875 4.1875 -2.5 C 4.3125 -2.28125 4.375 -2.007812 4.375 -1.6875 Z M 4.0625 -7.984375 L 4.0625 -7.90625 C 3.976562 -7.820312 3.867188 -7.722656 3.734375 -7.609375 C 3.609375 -7.492188 3.46875 -7.375 3.3125 -7.25 C 3.164062 -7.125 3.019531 -7.003906 2.875 -6.890625 C 2.726562 -6.785156 2.601562 -6.691406 2.5 -6.609375 L 1.65625 -6.609375 L 1.65625 -6.734375 C 1.75 -6.835938 1.851562 -6.960938 1.96875 -7.109375 C 2.09375 -7.253906 2.210938 -7.40625 2.328125 -7.5625 C 2.453125 -7.71875 2.554688 -7.859375 2.640625 -7.984375 Z M 4.0625 -7.984375 "/></g></g></g><g fill="#000000" fill-opacity="1"><g transform="translate(186.111078, 225.094159)"><g><path d="M 4.710938 -1.976562 C 4.472656 -1.460938 3.890625 -1.113281 3.292969 -1.113281 C 2.351562 -1.113281 1.597656 -1.914062 1.597656 -2.90625 C 1.597656 -3.890625 2.351562 -4.703125 3.292969 -4.703125 C 3.882812 -4.703125 4.464844 -4.378906 4.703125 -3.855469 L 6.132812 -3.855469 C 5.738281 -5.046875 4.617188 -5.902344 3.292969 -5.902344 C 1.640625 -5.902344 0.300781 -4.558594 0.300781 -2.90625 C 0.300781 -1.257812 1.640625 0.0859375 3.292969 0.0859375 C 4.617188 0.0859375 5.746094 -0.777344 6.140625 -1.976562 Z M 4.710938 -1.976562 "/></g></g></g><g fill="#000000" fill-opacity="1"><g transform="translate(194.175298, 225.094159)"><g><path d="M 1.796875 0 L 1.796875 -5.816406 L 0.511719 -5.816406 L 0.511719 0 Z M 1.796875 0 "/></g></g></g><g fill="#000000" fill-opacity="1"><g transform="translate(198.194573, 225.094159)"><g><path d="M 4.5 0 L 4.0625 -1.453125 L 1.84375 -1.453125 L 1.390625 0 L 0 0 L 2.15625 -6.125 L 3.734375 -6.125 L 5.890625 0 Z M 3.75 -2.53125 L 3.3125 -3.953125 C 3.28125 -4.054688 3.238281 -4.179688 3.1875 -4.328125 C 3.144531 -4.472656 3.097656 -4.625 3.046875 -4.78125 C 3.003906 -4.9375 2.972656 -5.066406 2.953125 -5.171875 C 2.921875 -5.066406 2.878906 -4.925781 2.828125 -4.75 C 2.785156 -4.582031 2.738281 -4.421875 2.6875 -4.265625 C 2.644531 -4.117188 2.613281 -4.015625 2.59375 -3.953125 L 2.15625 -2.53125 Z M 4.90625 0.953125 C 4.90625 1.066406 4.9375 1.148438 5 1.203125 C 5.0625 1.265625 5.144531 1.296875 5.25 1.296875 C 5.332031 1.296875 5.414062 1.285156 5.5 1.265625 C 5.59375 1.242188 5.664062 1.226562 5.71875 1.21875 L 5.71875 1.953125 C 5.625 1.984375 5.523438 2.003906 5.421875 2.015625 C 5.328125 2.035156 5.210938 2.046875 5.078125 2.046875 C 4.753906 2.046875 4.5 1.957031 4.3125 1.78125 C 4.125 1.601562 4.03125 1.375 4.03125 1.09375 C 4.03125 0.84375 4.117188 0.609375 4.296875 0.390625 C 4.484375 0.171875 4.707031 -0.00390625 4.96875 -0.140625 L 5.53125 0 C 5.332031 0.1875 5.175781 0.351562 5.0625 0.5 C 4.957031 0.65625 4.90625 0.804688 4.90625 0.953125 Z M 4.90625 0.953125 "/></g></g></g><g fill="#000000" fill-opacity="1"><g transform="translate(205.805551, 225.094159)"><g/></g></g><g fill="#000000" fill-opacity="1"><g transform="translate(209.653799, 225.094159)"><g><path d="M 1.796875 -2.078125 L 1.804688 -2.078125 L 3.191406 0 L 4.816406 0 L 3.148438 -2.136719 C 3.882812 -2.316406 4.472656 -2.96875 4.472656 -3.949219 C 4.472656 -5.054688 3.632812 -5.816406 2.695312 -5.816406 L 0.511719 -5.816406 L 0.511719 0 L 1.796875 0 Z M 2.480469 -4.804688 C 2.855469 -4.804688 3.25 -4.480469 3.25 -3.949219 C 3.25 -3.394531 2.855469 -3.085938 2.480469 -3.085938 L 1.796875 -3.085938 L 1.796875 -4.804688 Z M 2.480469 -4.804688 "/></g></g></g><g fill="#000000" fill-opacity="1"><g transform="translate(216.076099, 225.094159)"><g><path d="M 3.90625 -5.816406 L 3.90625 -2.453125 C 3.90625 -1.652344 3.667969 -1.195312 2.789062 -1.195312 C 1.914062 -1.195312 1.667969 -1.652344 1.667969 -2.453125 L 1.667969 -5.816406 L 0.386719 -5.816406 L 0.386719 -2.265625 C 0.386719 -0.71875 1.273438 0.0859375 2.789062 0.0859375 C 4.300781 0.0859375 5.191406 -0.71875 5.191406 -2.265625 L 5.191406 -5.816406 Z M 3.90625 -5.816406 "/></g></g></g><g fill="#000000" fill-opacity="1"><g transform="translate(223.362113, 225.094159)"><g><path d="M 4.710938 -1.976562 C 4.472656 -1.460938 3.890625 -1.113281 3.292969 -1.113281 C 2.351562 -1.113281 1.597656 -1.914062 1.597656 -2.90625 C 1.597656 -3.890625 2.351562 -4.703125 3.292969 -4.703125 C 3.882812 -4.703125 4.464844 -4.378906 4.703125 -3.855469 L 6.132812 -3.855469 C 5.738281 -5.046875 4.617188 -5.902344 3.292969 -5.902344 C 1.640625 -5.902344 0.300781 -4.558594 0.300781 -2.90625 C 0.300781 -1.257812 1.640625 0.0859375 3.292969 0.0859375 C 4.617188 0.0859375 5.746094 -0.777344 6.140625 -1.976562 Z M 4.710938 -1.976562 "/></g></g></g><g fill="#000000" fill-opacity="1"><g transform="translate(231.426333, 225.094159)"><g><path d="M 3.710938 -5.816406 L 3.710938 -3.496094 L 1.796875 -3.496094 L 1.796875 -5.816406 L 0.511719 -5.816406 L 0.511719 0 L 1.796875 0 L 1.796875 -2.335938 L 3.710938 -2.335938 L 3.710938 0 L 5.078125 0 L 5.078125 -5.816406 Z M 3.710938 -5.816406 "/></g></g></g><g fill="#000000" fill-opacity="1"><g transform="translate(238.729457, 225.094159)"><g><path d="M 3.90625 -5.816406 L 3.90625 -2.453125 C 3.90625 -1.652344 3.667969 -1.195312 2.789062 -1.195312 C 1.914062 -1.195312 1.667969 -1.652344 1.667969 -2.453125 L 1.667969 -5.816406 L 0.386719 -5.816406 L 0.386719 -2.265625 C 0.386719 -0.71875 1.273438 0.0859375 2.789062 0.0859375 C 4.300781 0.0859375 5.191406 -0.71875 5.191406 -2.265625 L 5.191406 -5.816406 Z M 3.90625 -5.816406 "/></g></g></g><g fill="#000000" fill-opacity="1"><g transform="translate(246.015472, 225.094159)"><g/></g></g><g fill="#000000" fill-opacity="1"><g transform="translate(249.86372, 225.094159)"><g><path d="M 2.777344 -1.539062 L 2.777344 -2.25 L 0.128906 -2.25 L 0.128906 -1.539062 Z M 2.777344 -1.539062 "/></g></g></g><g fill="#000000" fill-opacity="1"><g transform="translate(95.18983, 234.982003)"><g><path d="M 2.984375 -4.652344 L 4.644531 -4.652344 L 4.644531 -5.816406 L 0.0429688 -5.816406 L 0.0429688 -4.652344 L 1.703125 -4.652344 L 1.703125 0 L 2.984375 0 Z M 2.984375 -4.652344 "/></g></g></g><g fill="#000000" fill-opacity="1"><g transform="translate(101.586474, 234.982003)"><g><path d="M 7.765625 -5.816406 L 6.355469 -5.816406 L 5.667969 -1.804688 L 4.53125 -5.816406 L 3.273438 -5.816406 L 2.136719 -1.804688 L 1.453125 -5.816406 L 0.0429688 -5.816406 L 1.171875 0 L 2.695312 0 L 3.90625 -4.078125 L 5.113281 0 L 6.636719 0 Z M 7.765625 -5.816406 "/></g></g></g><g fill="#000000" fill-opacity="1"><g transform="translate(111.104476, 234.982003)"><g><path d="M 4.855469 -7.945312 L 3.761719 -7.945312 L 2.753906 -6.414062 L 3.710938 -6.414062 Z M 5.003906 -2.917969 C 5.003906 -2.019531 4.191406 -1.195312 3.292969 -1.195312 C 2.394531 -1.195312 1.582031 -2.019531 1.582031 -2.917969 C 1.582031 -3.8125 2.394531 -4.625 3.292969 -4.625 C 4.191406 -4.625 5.003906 -3.8125 5.003906 -2.917969 Z M 6.285156 -2.90625 C 6.285156 -4.515625 4.898438 -5.902344 3.292969 -5.902344 C 1.683594 -5.902344 0.300781 -4.515625 0.300781 -2.90625 C 0.300781 -1.300781 1.683594 0.0859375 3.292969 0.0859375 C 4.898438 0.0859375 6.285156 -1.300781 6.285156 -2.90625 Z M 6.285156 -2.90625 "/></g></g></g><g fill="#000000" fill-opacity="1"><g transform="translate(119.399588, 234.982003)"><g><path d="M 0.992188 -1.144531 C 0.617188 -1.144531 0.351562 -1.28125 0.195312 -1.574219 L 0.171875 -1.574219 L 0.171875 -0.0078125 C 0.417969 0.0507812 0.691406 0.0859375 0.992188 0.0859375 C 2.386719 0.0859375 3.222656 -0.523438 3.222656 -2.179688 L 3.222656 -5.816406 L 1.941406 -5.816406 L 1.941406 -2.285156 C 1.941406 -1.675781 1.90625 -1.144531 0.992188 -1.144531 Z M 0.992188 -1.144531 "/></g></g></g><g fill="#000000" fill-opacity="1"><g transform="translate(124.76148, 234.982003)"><g/></g></g><g fill="#000000" fill-opacity="1"><g transform="translate(128.609727, 234.982003)"><g><path d="M 2.769531 -0.90625 C 2.136719 -0.90625 1.589844 -1.222656 1.554688 -1.914062 L 0.257812 -1.914062 C 0.265625 -0.496094 1.4375 0.136719 2.71875 0.136719 C 3.90625 0.136719 5.132812 -0.367188 5.132812 -1.734375 C 5.132812 -3.949219 1.769531 -3.207031 1.769531 -4.242188 C 1.769531 -4.679688 2.273438 -4.847656 2.632812 -4.847656 C 3.273438 -4.847656 3.625 -4.652344 3.695312 -4.046875 L 4.933594 -4.046875 C 4.890625 -5.371094 3.8125 -5.902344 2.617188 -5.902344 C 1.554688 -5.902344 0.445312 -5.335938 0.445312 -4.140625 C 0.445312 -1.992188 3.804688 -2.71875 3.804688 -1.589844 C 3.804688 -1.070312 3.171875 -0.90625 2.769531 -0.90625 Z M 2.769531 -0.90625 "/></g></g></g><g fill="#000000" fill-opacity="1"><g transform="translate(135.707604, 234.982003)"><g><path d="M 1.796875 -2.078125 L 2.695312 -2.078125 C 3.632812 -2.078125 4.472656 -2.769531 4.472656 -3.949219 C 4.472656 -5.054688 3.632812 -5.816406 2.695312 -5.816406 L 0.511719 -5.816406 L 0.511719 0 L 1.796875 0 Z M 2.480469 -4.804688 C 2.855469 -4.804688 3.25 -4.480469 3.25 -3.949219 C 3.25 -3.394531 2.855469 -3.085938 2.480469 -3.085938 L 1.796875 -3.085938 L 1.796875 -4.804688 Z M 2.480469 -4.804688 "/></g></g></g><g fill="#000000" fill-opacity="1"><g transform="translate(142.018728, 234.982003)"><g><path d="M 1.796875 -2.078125 L 1.804688 -2.078125 L 3.191406 0 L 4.816406 0 L 3.148438 -2.136719 C 3.882812 -2.316406 4.472656 -2.96875 4.472656 -3.949219 C 4.472656 -5.054688 3.632812 -5.816406 2.695312 -5.816406 L 0.511719 -5.816406 L 0.511719 0 L 1.796875 0 Z M 2.480469 -4.804688 C 2.855469 -4.804688 3.25 -4.480469 3.25 -3.949219 C 3.25 -3.394531 2.855469 -3.085938 2.480469 -3.085938 L 1.796875 -3.085938 L 1.796875 -4.804688 Z M 2.480469 -4.804688 "/></g></g></g><g fill="#000000" fill-opacity="1"><g transform="translate(148.441024, 234.982003)"><g><path d="M 4.550781 -1.164062 L 2.257812 -1.164062 L 4.6875 -5.816406 L 0.34375 -5.816406 L 0.34375 -4.652344 L 2.601562 -4.652344 L 0.171875 0 L 4.550781 0 Z M 4.550781 -1.164062 "/></g></g></g><g fill="#000000" fill-opacity="1"><g transform="translate(155.008699, 234.982003)"><g><path d="M 4.28125 0 L 0.765625 0 L 0.765625 -6.109375 L 4.28125 -6.109375 L 4.28125 -5.046875 L 2.0625 -5.046875 L 2.0625 -3.703125 L 4.125 -3.703125 L 4.125 -2.640625 L 2.0625 -2.640625 L 2.0625 -1.0625 L 4.28125 -1.0625 Z M 3.46875 0.953125 C 3.46875 1.066406 3.5 1.148438 3.5625 1.203125 C 3.625 1.265625 3.707031 1.296875 3.8125 1.296875 C 3.894531 1.296875 3.976562 1.285156 4.0625 1.265625 C 4.15625 1.242188 4.226562 1.226562 4.28125 1.21875 L 4.28125 1.953125 C 4.1875 1.984375 4.085938 2.003906 3.984375 2.015625 C 3.890625 2.035156 3.773438 2.046875 3.640625 2.046875 C 3.316406 2.046875 3.0625 1.957031 2.875 1.78125 C 2.6875 1.601562 2.59375 1.375 2.59375 1.09375 C 2.59375 0.84375 2.679688 0.609375 2.859375 0.390625 C 3.046875 0.171875 3.269531 -0.00390625 3.53125 -0.140625 L 4.09375 0 C 3.894531 0.1875 3.738281 0.351562 3.625 0.5 C 3.519531 0.65625 3.46875 0.804688 3.46875 0.953125 Z M 3.46875 0.953125 "/></g></g></g><g fill="#000000" fill-opacity="1"><g transform="translate(161.507962, 234.982003)"><g><path d="M 2.984375 -4.652344 L 4.644531 -4.652344 L 4.644531 -5.816406 L 0.0429688 -5.816406 L 0.0429688 -4.652344 L 1.703125 -4.652344 L 1.703125 0 L 2.984375 0 Z M 2.984375 -4.652344 "/></g></g></g><g fill="#000000" fill-opacity="1"><g transform="translate(167.904604, 234.982003)"><g><path d="M 1.8125 -1.164062 L 0.546875 -1.164062 L 0.0273438 1.144531 L 0.726562 1.144531 Z M 1.8125 -1.164062 "/></g></g></g><g fill="#000000" fill-opacity="1"><g transform="translate(171.71864, 234.982003)"><g/></g></g><g fill="#000000" fill-opacity="1"><g transform="translate(175.566889, 234.982003)"><g><path d="M 1.796875 0 L 1.796875 -5.816406 L 0.511719 -5.816406 L 0.511719 0 Z M 1.796875 0 "/></g></g></g><g fill="#000000" fill-opacity="1"><g transform="translate(179.586166, 234.982003)"><g><path d="M 4.710938 -1.976562 C 4.472656 -1.460938 3.890625 -1.113281 3.292969 -1.113281 C 2.351562 -1.113281 1.597656 -1.914062 1.597656 -2.90625 C 1.597656 -3.890625 2.351562 -4.703125 3.292969 -4.703125 C 3.882812 -4.703125 4.464844 -4.378906 4.703125 -3.855469 L 6.132812 -3.855469 C 5.738281 -5.046875 4.617188 -5.902344 3.292969 -5.902344 C 1.640625 -5.902344 0.300781 -4.558594 0.300781 -2.90625 C 0.300781 -1.257812 1.640625 0.0859375 3.292969 0.0859375 C 4.617188 0.0859375 5.746094 -0.777344 6.140625 -1.976562 Z M 4.710938 -1.976562 "/></g></g></g><g fill="#000000" fill-opacity="1"><g transform="translate(187.650385, 234.982003)"><g><path d="M 3.710938 -5.816406 L 3.710938 -3.496094 L 1.796875 -3.496094 L 1.796875 -5.816406 L 0.511719 -5.816406 L 0.511719 0 L 1.796875 0 L 1.796875 -2.335938 L 3.710938 -2.335938 L 3.710938 0 L 5.078125 0 L 5.078125 -5.816406 Z M 3.710938 -5.816406 "/></g></g></g><g fill="#000000" fill-opacity="1"><g transform="translate(194.953501, 234.982003)"><g/></g></g><g fill="#000000" fill-opacity="1"><g transform="translate(198.80175, 234.982003)"><g><path d="M 1.796875 -2.078125 L 2.695312 -2.078125 C 3.632812 -2.078125 4.472656 -2.769531 4.472656 -3.949219 C 4.472656 -5.054688 3.632812 -5.816406 2.695312 -5.816406 L 0.511719 -5.816406 L 0.511719 0 L 1.796875 0 Z M 2.480469 -4.804688 C 2.855469 -4.804688 3.25 -4.480469 3.25 -3.949219 C 3.25 -3.394531 2.855469 -3.085938 2.480469 -3.085938 L 1.796875 -3.085938 L 1.796875 -4.804688 Z M 2.480469 -4.804688 "/></g></g></g><g fill="#000000" fill-opacity="1"><g transform="translate(205.112874, 234.982003)"><g><path d="M 1.796875 -2.078125 L 1.804688 -2.078125 L 3.191406 0 L 4.816406 0 L 3.148438 -2.136719 C 3.882812 -2.316406 4.472656 -2.96875 4.472656 -3.949219 C 4.472656 -5.054688 3.632812 -5.816406 2.695312 -5.816406 L 0.511719 -5.816406 L 0.511719 0 L 1.796875 0 Z M 2.480469 -4.804688 C 2.855469 -4.804688 3.25 -4.480469 3.25 -3.949219 C 3.25 -3.394531 2.855469 -3.085938 2.480469 -3.085938 L 1.796875 -3.085938 L 1.796875 -4.804688 Z M 2.480469 -4.804688 "/></g></g></g><g fill="#000000" fill-opacity="1"><g transform="translate(211.535173, 234.982003)"><g><path d="M 4.550781 -1.164062 L 2.257812 -1.164062 L 4.6875 -5.816406 L 0.34375 -5.816406 L 0.34375 -4.652344 L 2.601562 -4.652344 L 0.171875 0 L 4.550781 0 Z M 4.550781 -1.164062 "/></g></g></g><g fill="#000000" fill-opacity="1"><g transform="translate(218.102852, 234.982003)"><g><path d="M 2.214844 0 L 3.496094 0 L 3.496094 -2.777344 L 5.644531 -5.816406 L 4.113281 -5.816406 L 2.855469 -3.804688 L 1.597656 -5.816406 L 0.0703125 -5.816406 L 2.214844 -2.777344 Z M 2.214844 0 "/></g></g></g><g fill="#000000" fill-opacity="1"><g transform="translate(225.525691, 234.982003)"><g><path d="M 3.421875 -4.703125 C 3.984375 -4.703125 4.566406 -4.472656 4.847656 -3.855469 L 6.261719 -3.855469 C 5.859375 -5.0625 4.703125 -5.902344 3.421875 -5.902344 C 1.777344 -5.902344 0.425781 -4.550781 0.425781 -2.90625 C 0.425781 -1.265625 1.777344 0.0859375 3.421875 0.0859375 C 5.078125 0.0859375 6.40625 -1.257812 6.40625 -2.90625 L 6.40625 -3.105469 L 3.539062 -3.105469 L 3.539062 -2.136719 L 5.019531 -2.136719 C 4.703125 -1.257812 3.984375 -1.078125 3.421875 -1.078125 C 2.496094 -1.078125 1.726562 -1.90625 1.726562 -2.890625 C 1.726562 -3.875 2.496094 -4.703125 3.421875 -4.703125 Z M 3.421875 -4.703125 "/></g></g></g><g fill="#000000" fill-opacity="1"><g transform="translate(233.940523, 234.982003)"><g><path d="M 5.003906 -2.917969 C 5.003906 -2.019531 4.191406 -1.195312 3.292969 -1.195312 C 2.394531 -1.195312 1.582031 -2.019531 1.582031 -2.917969 C 1.582031 -3.8125 2.394531 -4.625 3.292969 -4.625 C 4.191406 -4.625 5.003906 -3.8125 5.003906 -2.917969 Z M 6.285156 -2.90625 C 6.285156 -4.515625 4.898438 -5.902344 3.292969 -5.902344 C 1.683594 -5.902344 0.300781 -4.515625 0.300781 -2.90625 C 0.300781 -1.300781 1.683594 0.0859375 3.292969 0.0859375 C 4.898438 0.0859375 6.285156 -1.300781 6.285156 -2.90625 Z M 6.285156 -2.90625 "/></g></g></g><g fill="#000000" fill-opacity="1"><g transform="translate(242.235632, 234.982003)"><g><path d="M 1.777344 -1.179688 L 1.777344 -4.625 L 2.164062 -4.625 C 3.15625 -4.625 3.824219 -3.875 3.824219 -2.90625 C 3.824219 -1.941406 3.148438 -1.179688 2.164062 -1.179688 Z M 0.511719 -5.816406 L 0.511719 0 L 2.242188 0 C 3.890625 0 5.132812 -1.265625 5.132812 -2.90625 C 5.132812 -4.550781 3.882812 -5.816406 2.242188 -5.816406 Z M 0.511719 -5.816406 "/></g></g></g><g fill="#000000" fill-opacity="1"><g transform="translate(249.376267, 234.982003)"><g><path d="M 3.675781 -2.222656 L 2.207031 -2.222656 L 2.941406 -4.292969 Z M 5.847656 0 L 3.488281 -5.816406 L 2.402344 -5.816406 L 0.0429688 0 L 1.417969 0 L 1.839844 -1.171875 L 4.054688 -1.171875 L 4.472656 0 Z M 5.847656 0 "/></g></g></g><g fill="#000000" fill-opacity="1"><g transform="translate(256.978699, 234.982003)"><g><path d="M 0.445312 -0.667969 C 0.445312 -0.246094 0.777344 0.0859375 1.195312 0.0859375 C 1.609375 0.0859375 1.949219 -0.246094 1.949219 -0.667969 C 1.949219 -1.078125 1.609375 -1.417969 1.195312 -1.417969 C 0.777344 -1.417969 0.445312 -1.078125 0.445312 -0.667969 Z M 0.726562 -1.957031 L 1.667969 -1.957031 L 1.839844 -6.414062 L 0.554688 -6.414062 Z M 0.726562 -1.957031 "/></g></g></g></svg>